<svg width="309" height="103" viewBox="0 0 309 103" fill="none" xmlns="http://www.w3.org/2000/svg">
<path d="M10.3 50.0516V13.8075V10.3L40.894 30.1758L10.3 50.0516Z" fill="url(#paint0_linear_3_2845)"/>
<path d="M52.4924 40.9586C50.9009 40.9586 49.4883 41.2716 48.2544 41.8974C47.0384 42.5054 46.0102 43.3906 45.1698 44.5529C44.3472 45.7152 43.7213 47.119 43.2922 48.7641C42.863 50.4093 42.6484 52.26 42.6484 54.3165C42.6484 57.0882 42.9882 59.4575 43.6677 61.4245C44.3651 63.3737 45.438 64.8668 46.8865 65.904C48.3349 66.9232 50.2036 67.4329 52.4924 67.4329C54.0839 67.4329 55.6754 67.254 57.2669 66.8964C58.8763 66.5388 60.6198 66.0291 62.4974 65.3675V72.3415C60.7628 73.0567 59.0551 73.5664 57.3742 73.8704C55.6933 74.1922 53.8068 74.3532 51.7146 74.3532C47.6733 74.3532 44.3472 73.5217 41.7365 71.8586C39.1436 70.1777 37.2213 67.8352 35.9695 64.831C34.7178 61.809 34.0919 58.2862 34.0919 54.2628C34.0919 51.2944 34.4943 48.5764 35.299 46.1086C36.1036 43.6409 37.2838 41.504 38.8396 39.698C40.3953 37.8919 42.3176 36.4971 44.6065 35.5136C46.8954 34.5301 49.524 34.0383 52.4924 34.0383C54.4416 34.0383 56.3907 34.2887 58.3398 34.7894C60.3069 35.2722 62.1845 35.9428 63.9726 36.8011L61.2904 43.5605C59.824 42.8631 58.3488 42.2551 56.8646 41.7365C55.3804 41.2179 53.923 40.9586 52.4924 40.9586Z" fill="white"/>
<path d="M108.016 43.8287V73.8167H100.371V59.0909C100.371 57.6425 100.398 56.2209 100.452 54.8261C100.505 53.4313 100.586 52.1438 100.693 50.9636H100.532L92.244 73.8167H86.1016L77.6792 50.9099H77.4646C77.6076 52.108 77.706 53.3955 77.7596 54.7724C77.8133 56.1494 77.8401 57.6604 77.8401 59.3055V73.8167H70.2224V43.8287H81.8099L89.2667 64.1605L96.8575 43.8287H108.016Z" fill="white"/>
<path d="M143.878 58.7691C143.878 61.2725 143.538 63.4899 142.859 65.4211C142.197 67.3524 141.223 68.9886 139.935 70.3297C138.666 71.653 137.128 72.6544 135.322 73.3339C133.533 74.0134 131.513 74.3532 129.26 74.3532C127.15 74.3532 125.209 74.0134 123.439 73.3339C121.687 72.6544 120.158 71.653 118.852 70.3297C117.565 68.9886 116.563 67.3524 115.848 65.4211C115.151 63.4899 114.802 61.2725 114.802 58.7691C114.802 55.443 115.392 52.6266 116.572 50.3198C117.753 48.0131 119.434 46.2606 121.615 45.0625C123.797 43.8645 126.399 43.2654 129.421 43.2654C132.228 43.2654 134.714 43.8645 136.877 45.0625C139.059 46.2606 140.767 48.0131 142.001 50.3198C143.252 52.6266 143.878 55.443 143.878 58.7691ZM123.144 58.7691C123.144 60.7361 123.359 62.3902 123.788 63.7313C124.217 65.0724 124.887 66.0828 125.799 66.7623C126.711 67.4418 127.901 67.7816 129.367 67.7816C130.815 67.7816 131.987 67.4418 132.881 66.7623C133.793 66.0828 134.454 65.0724 134.866 63.7313C135.295 62.3902 135.509 60.7361 135.509 58.7691C135.509 56.7842 135.295 55.139 134.866 53.8336C134.454 52.5104 133.793 51.5179 132.881 50.8563C131.969 50.1947 130.78 49.8639 129.313 49.8639C127.15 49.8639 125.576 50.606 124.592 52.0902C123.627 53.5744 123.144 55.8007 123.144 58.7691Z" fill="white"/>
<path d="M175.449 49.9711H165.632V73.8167H157.451V49.9711H147.607V43.8287H175.449V49.9711Z" fill="white"/>
<path d="M197.739 43.2654C201.118 43.2654 203.845 44.5797 205.92 47.2084C208.012 49.837 209.058 53.6906 209.058 58.7691C209.058 62.1666 208.566 65.0277 207.583 67.3524C206.599 69.6592 205.24 71.4027 203.505 72.5829C201.771 73.7631 199.777 74.3532 197.524 74.3532C196.076 74.3532 194.833 74.1744 193.796 73.8167C192.758 73.4412 191.873 72.9673 191.14 72.3951C190.407 71.805 189.772 71.1791 189.236 70.5175H188.807C188.95 71.2328 189.057 71.9659 189.128 72.717C189.2 73.468 189.236 74.2012 189.236 74.9165V87.0136H181.055V43.8287H187.707L188.86 47.718H189.236C189.772 46.9133 190.425 46.1712 191.194 45.4917C191.963 44.8122 192.884 44.2757 193.957 43.8823C195.047 43.4711 196.308 43.2654 197.739 43.2654ZM195.11 49.8102C193.679 49.8102 192.544 50.1053 191.703 50.6954C190.863 51.2855 190.246 52.1706 189.853 53.3508C189.477 54.531 189.271 56.0242 189.236 57.8303V58.7154C189.236 60.6467 189.414 62.2829 189.772 63.624C190.148 64.9652 190.765 65.9844 191.623 66.6818C192.499 67.3792 193.697 67.7279 195.217 67.7279C196.469 67.7279 197.497 67.3792 198.302 66.6818C199.107 65.9844 199.706 64.9652 200.099 63.624C200.51 62.265 200.716 60.6109 200.716 58.6618C200.716 55.7291 200.26 53.5207 199.348 52.0365C198.436 50.5523 197.023 49.8102 195.11 49.8102Z" fill="white"/>
<path d="M223.73 43.8287V55.6844C223.73 56.2924 223.703 57.0613 223.649 57.9912C223.614 58.9032 223.56 59.833 223.489 60.7808C223.417 61.7285 223.345 62.5779 223.274 63.329C223.202 64.08 223.149 64.5896 223.113 64.8579L236.954 43.8287H246.798V73.8167H238.885V61.8537C238.885 60.8702 238.921 59.7883 238.992 58.6081C239.064 57.41 239.144 56.2835 239.234 55.2284C239.323 54.1734 239.386 53.3777 239.421 52.8412L225.634 73.8167H215.817V43.8287H223.73Z" fill="white"/>
<path d="M293.201 43.8287V73.8167H285.557V59.0909C285.557 57.6425 285.584 56.2209 285.637 54.8261C285.691 53.4313 285.771 52.1438 285.879 50.9636H285.718L277.429 73.8167H271.287L262.865 50.9099H262.65C262.793 52.108 262.891 53.3955 262.945 54.7724C262.999 56.1494 263.026 57.6604 263.026 59.3055V73.8167H255.408V43.8287H266.995L274.452 64.1605L282.043 43.8287H293.201Z" fill="white"/>
<defs>
<linearGradient id="paint0_linear_3_2845" x1="10.3" y1="24.8917" x2="25.75" y2="38.625" gradientUnits="userSpaceOnUse">
<stop stop-color="#096DD9"/>
<stop offset="1" stop-color="#1FBBC8"/>
</linearGradient>
</defs>
</svg>
