<svg width="165" height="45" viewBox="0 0 165 45" fill="none" xmlns="http://www.w3.org/2000/svg">
<path d="M0 23.1562V2.0432V0L17.8218 11.5781L0 23.1562Z" fill="url(#paint0_linear_102_515)"/>
<path d="M24.5781 17.8594C23.651 17.8594 22.8281 18.0417 22.1094 18.4062C21.401 18.7604 20.8021 19.276 20.3125 19.9531C19.8333 20.6302 19.4688 21.4479 19.2188 22.4062C18.9688 23.3646 18.8438 24.4427 18.8438 25.6406C18.8438 27.2552 19.0417 28.6354 19.4375 29.7812C19.8438 30.9167 20.4688 31.7865 21.3125 32.3906C22.1562 32.9844 23.2448 33.2812 24.5781 33.2812C25.5052 33.2812 26.4323 33.1771 27.3594 32.9688C28.2969 32.7604 29.3125 32.4635 30.4062 32.0781V36.1406C29.3958 36.5573 28.401 36.8542 27.4219 37.0312C26.4427 37.2188 25.3438 37.3125 24.125 37.3125C21.7708 37.3125 19.8333 36.8281 18.3125 35.8594C16.8021 34.8802 15.6823 33.5156 14.9531 31.7656C14.224 30.0052 13.8594 27.9531 13.8594 25.6094C13.8594 23.8802 14.0938 22.2969 14.5625 20.8594C15.0312 19.4219 15.7188 18.1771 16.625 17.125C17.5312 16.0729 18.651 15.2604 19.9844 14.6875C21.3177 14.1146 22.849 13.8281 24.5781 13.8281C25.7135 13.8281 26.849 13.974 27.9844 14.2656C29.1302 14.5469 30.224 14.9375 31.2656 15.4375L29.7031 19.375C28.849 18.9688 27.9896 18.6146 27.125 18.3125C26.2604 18.0104 25.4115 17.8594 24.5781 17.8594Z" fill="#000E1D"/>
<path d="M56.9219 19.5312V37H52.4688V28.4219C52.4688 27.5781 52.4844 26.75 52.5156 25.9375C52.5469 25.125 52.5938 24.375 52.6562 23.6875H52.5625L47.7344 37H44.1562L39.25 23.6562H39.125C39.2083 24.3542 39.2656 25.1042 39.2969 25.9062C39.3281 26.7083 39.3438 27.5885 39.3438 28.5469V37H34.9062V19.5312H41.6562L46 31.375L50.4219 19.5312H56.9219Z" fill="#000E1D"/>
<path d="M77.8125 28.2344C77.8125 29.6927 77.6146 30.9844 77.2188 32.1094C76.8333 33.2344 76.2656 34.1875 75.5156 34.9688C74.776 35.7396 73.8802 36.3229 72.8281 36.7188C71.7865 37.1146 70.6094 37.3125 69.2969 37.3125C68.0677 37.3125 66.9375 37.1146 65.9062 36.7188C64.8854 36.3229 63.9948 35.7396 63.2344 34.9688C62.4844 34.1875 61.901 33.2344 61.4844 32.1094C61.0781 30.9844 60.875 29.6927 60.875 28.2344C60.875 26.2969 61.2188 24.6562 61.9062 23.3125C62.5938 21.9688 63.5729 20.9479 64.8438 20.25C66.1146 19.5521 67.6302 19.2031 69.3906 19.2031C71.026 19.2031 72.474 19.5521 73.7344 20.25C75.0052 20.9479 76 21.9688 76.7188 23.3125C77.4479 24.6562 77.8125 26.2969 77.8125 28.2344ZM65.7344 28.2344C65.7344 29.3802 65.8594 30.3438 66.1094 31.125C66.3594 31.9062 66.75 32.4948 67.2812 32.8906C67.8125 33.2865 68.5052 33.4844 69.3594 33.4844C70.2031 33.4844 70.8854 33.2865 71.4062 32.8906C71.9375 32.4948 72.3229 31.9062 72.5625 31.125C72.8125 30.3438 72.9375 29.3802 72.9375 28.2344C72.9375 27.0781 72.8125 26.1198 72.5625 25.3594C72.3229 24.5885 71.9375 24.0104 71.4062 23.625C70.875 23.2396 70.1823 23.0469 69.3281 23.0469C68.0677 23.0469 67.151 23.4792 66.5781 24.3438C66.0156 25.2083 65.7344 26.5052 65.7344 28.2344Z" fill="#000E1D"/>
<path d="M96.2031 23.1094H90.4844V37H85.7188V23.1094H79.9844V19.5312H96.2031V23.1094Z" fill="#000E1D"/>
<path d="M109.188 19.2031C111.156 19.2031 112.745 19.9688 113.953 21.5C115.172 23.0312 115.781 25.276 115.781 28.2344C115.781 30.2135 115.495 31.8802 114.922 33.2344C114.349 34.5781 113.557 35.5938 112.547 36.2812C111.536 36.9688 110.375 37.3125 109.062 37.3125C108.219 37.3125 107.495 37.2083 106.891 37C106.286 36.7812 105.771 36.5052 105.344 36.1719C104.917 35.8281 104.547 35.4635 104.234 35.0781H103.984C104.068 35.4948 104.13 35.9219 104.172 36.3594C104.214 36.7969 104.234 37.224 104.234 37.6406V44.6875H99.4688V19.5312H103.344L104.016 21.7969H104.234C104.547 21.3281 104.927 20.8958 105.375 20.5C105.823 20.1042 106.359 19.7917 106.984 19.5625C107.62 19.3229 108.354 19.2031 109.188 19.2031ZM107.656 23.0156C106.823 23.0156 106.161 23.1875 105.672 23.5312C105.182 23.875 104.823 24.3906 104.594 25.0781C104.375 25.7656 104.255 26.6354 104.234 27.6875V28.2031C104.234 29.3281 104.339 30.2812 104.547 31.0625C104.766 31.8438 105.125 32.4375 105.625 32.8438C106.135 33.25 106.833 33.4531 107.719 33.4531C108.448 33.4531 109.047 33.25 109.516 32.8438C109.984 32.4375 110.333 31.8438 110.562 31.0625C110.802 30.2708 110.922 29.3073 110.922 28.1719C110.922 26.4635 110.656 25.1771 110.125 24.3125C109.594 23.4479 108.771 23.0156 107.656 23.0156Z" fill="#000E1D"/>
<path d="M124.328 19.5312V26.4375C124.328 26.7917 124.312 27.2396 124.281 27.7812C124.26 28.3125 124.229 28.8542 124.188 29.4062C124.146 29.9583 124.104 30.4531 124.062 30.8906C124.021 31.3281 123.99 31.625 123.969 31.7812L132.031 19.5312H137.766V37H133.156V30.0312C133.156 29.4583 133.177 28.8281 133.219 28.1406C133.26 27.4427 133.307 26.7865 133.359 26.1719C133.411 25.5573 133.448 25.0938 133.469 24.7812L125.438 37H119.719V19.5312H124.328Z" fill="#000E1D"/>
<path d="M164.797 19.5312V37H160.344V28.4219C160.344 27.5781 160.359 26.75 160.391 25.9375C160.422 25.125 160.469 24.375 160.531 23.6875H160.438L155.609 37H152.031L147.125 23.6562H147C147.083 24.3542 147.141 25.1042 147.172 25.9062C147.203 26.7083 147.219 27.5885 147.219 28.5469V37H142.781V19.5312H149.531L153.875 31.375L158.297 19.5312H164.797Z" fill="#000E1D"/>
<defs>
<linearGradient id="paint0_linear_102_515" x1="1.43683e-07" y1="8.5" x2="9" y2="16.5" gradientUnits="userSpaceOnUse">
<stop stop-color="#096DD9"/>
<stop offset="1" stop-color="#1FBBC8"/>
</linearGradient>
</defs>
</svg>
