<svg width="180" height="60" viewBox="0 0 180 60" fill="none" xmlns="http://www.w3.org/2000/svg">
<path d="M6 29.1562V8.0432V6L23.8218 17.5781L6 29.1562Z" fill="url(#paint0_linear_3_2841)"/>
<path d="M30.5781 23.8594C29.651 23.8594 28.8281 24.0417 28.1094 24.4062C27.401 24.7604 26.8021 25.276 26.3125 25.9531C25.8333 26.6302 25.4688 27.4479 25.2188 28.4062C24.9688 29.3646 24.8438 30.4427 24.8438 31.6406C24.8438 33.2552 25.0417 34.6354 25.4375 35.7812C25.8438 36.9167 26.4688 37.7865 27.3125 38.3906C28.1562 38.9844 29.2448 39.2812 30.5781 39.2812C31.5052 39.2812 32.4323 39.1771 33.3594 38.9688C34.2969 38.7604 35.3125 38.4635 36.4062 38.0781V42.1406C35.3958 42.5573 34.401 42.8542 33.4219 43.0312C32.4427 43.2188 31.3438 43.3125 30.125 43.3125C27.7708 43.3125 25.8333 42.8281 24.3125 41.8594C22.8021 40.8802 21.6823 39.5156 20.9531 37.7656C20.224 36.0052 19.8594 33.9531 19.8594 31.6094C19.8594 29.8802 20.0938 28.2969 20.5625 26.8594C21.0312 25.4219 21.7188 24.1771 22.625 23.125C23.5312 22.0729 24.651 21.2604 25.9844 20.6875C27.3177 20.1146 28.849 19.8281 30.5781 19.8281C31.7135 19.8281 32.849 19.974 33.9844 20.2656C35.1302 20.5469 36.224 20.9375 37.2656 21.4375L35.7031 25.375C34.849 24.9688 33.9896 24.6146 33.125 24.3125C32.2604 24.0104 31.4115 23.8594 30.5781 23.8594Z" fill="#000E1D"/>
<path d="M62.9219 25.5312V43H58.4688V34.4219C58.4688 33.5781 58.4844 32.75 58.5156 31.9375C58.5469 31.125 58.5938 30.375 58.6562 29.6875H58.5625L53.7344 43H50.1562L45.25 29.6562H45.125C45.2083 30.3542 45.2656 31.1042 45.2969 31.9062C45.3281 32.7083 45.3438 33.5885 45.3438 34.5469V43H40.9062V25.5312H47.6562L52 37.375L56.4219 25.5312H62.9219Z" fill="#000E1D"/>
<path d="M83.8125 34.2344C83.8125 35.6927 83.6146 36.9844 83.2188 38.1094C82.8333 39.2344 82.2656 40.1875 81.5156 40.9688C80.776 41.7396 79.8802 42.3229 78.8281 42.7188C77.7865 43.1146 76.6094 43.3125 75.2969 43.3125C74.0677 43.3125 72.9375 43.1146 71.9062 42.7188C70.8854 42.3229 69.9948 41.7396 69.2344 40.9688C68.4844 40.1875 67.901 39.2344 67.4844 38.1094C67.0781 36.9844 66.875 35.6927 66.875 34.2344C66.875 32.2969 67.2188 30.6562 67.9062 29.3125C68.5938 27.9688 69.5729 26.9479 70.8438 26.25C72.1146 25.5521 73.6302 25.2031 75.3906 25.2031C77.026 25.2031 78.474 25.5521 79.7344 26.25C81.0052 26.9479 82 27.9688 82.7188 29.3125C83.4479 30.6562 83.8125 32.2969 83.8125 34.2344ZM71.7344 34.2344C71.7344 35.3802 71.8594 36.3438 72.1094 37.125C72.3594 37.9062 72.75 38.4948 73.2812 38.8906C73.8125 39.2865 74.5052 39.4844 75.3594 39.4844C76.2031 39.4844 76.8854 39.2865 77.4062 38.8906C77.9375 38.4948 78.3229 37.9062 78.5625 37.125C78.8125 36.3438 78.9375 35.3802 78.9375 34.2344C78.9375 33.0781 78.8125 32.1198 78.5625 31.3594C78.3229 30.5885 77.9375 30.0104 77.4062 29.625C76.875 29.2396 76.1823 29.0469 75.3281 29.0469C74.0677 29.0469 73.151 29.4792 72.5781 30.3438C72.0156 31.2083 71.7344 32.5052 71.7344 34.2344Z" fill="#000E1D"/>
<path d="M102.203 29.1094H96.4844V43H91.7188V29.1094H85.9844V25.5312H102.203V29.1094Z" fill="#000E1D"/>
<path d="M115.188 25.2031C117.156 25.2031 118.745 25.9688 119.953 27.5C121.172 29.0312 121.781 31.276 121.781 34.2344C121.781 36.2135 121.495 37.8802 120.922 39.2344C120.349 40.5781 119.557 41.5938 118.547 42.2812C117.536 42.9688 116.375 43.3125 115.062 43.3125C114.219 43.3125 113.495 43.2083 112.891 43C112.286 42.7812 111.771 42.5052 111.344 42.1719C110.917 41.8281 110.547 41.4635 110.234 41.0781H109.984C110.068 41.4948 110.13 41.9219 110.172 42.3594C110.214 42.7969 110.234 43.224 110.234 43.6406V50.6875H105.469V25.5312H109.344L110.016 27.7969H110.234C110.547 27.3281 110.927 26.8958 111.375 26.5C111.823 26.1042 112.359 25.7917 112.984 25.5625C113.62 25.3229 114.354 25.2031 115.188 25.2031ZM113.656 29.0156C112.823 29.0156 112.161 29.1875 111.672 29.5312C111.182 29.875 110.823 30.3906 110.594 31.0781C110.375 31.7656 110.255 32.6354 110.234 33.6875V34.2031C110.234 35.3281 110.339 36.2812 110.547 37.0625C110.766 37.8438 111.125 38.4375 111.625 38.8438C112.135 39.25 112.833 39.4531 113.719 39.4531C114.448 39.4531 115.047 39.25 115.516 38.8438C115.984 38.4375 116.333 37.8438 116.562 37.0625C116.802 36.2708 116.922 35.3073 116.922 34.1719C116.922 32.4635 116.656 31.1771 116.125 30.3125C115.594 29.4479 114.771 29.0156 113.656 29.0156Z" fill="#000E1D"/>
<path d="M130.328 25.5312V32.4375C130.328 32.7917 130.312 33.2396 130.281 33.7812C130.26 34.3125 130.229 34.8542 130.188 35.4062C130.146 35.9583 130.104 36.4531 130.062 36.8906C130.021 37.3281 129.99 37.625 129.969 37.7812L138.031 25.5312H143.766V43H139.156V36.0312C139.156 35.4583 139.177 34.8281 139.219 34.1406C139.26 33.4427 139.307 32.7865 139.359 32.1719C139.411 31.5573 139.448 31.0938 139.469 30.7812L131.438 43H125.719V25.5312H130.328Z" fill="#000E1D"/>
<path d="M170.797 25.5312V43H166.344V34.4219C166.344 33.5781 166.359 32.75 166.391 31.9375C166.422 31.125 166.469 30.375 166.531 29.6875H166.438L161.609 43H158.031L153.125 29.6562H153C153.083 30.3542 153.141 31.1042 153.172 31.9062C153.203 32.7083 153.219 33.5885 153.219 34.5469V43H148.781V25.5312H155.531L159.875 37.375L164.297 25.5312H170.797Z" fill="#000E1D"/>
<defs>
<linearGradient id="paint0_linear_3_2841" x1="6" y1="14.5" x2="15" y2="22.5" gradientUnits="userSpaceOnUse">
<stop stop-color="#096DD9"/>
<stop offset="1" stop-color="#1FBBC8"/>
</linearGradient>
</defs>
</svg>
